# xmcd
#
# Track frame offsets: 
#        150
#        14535
#        24538
#        44380
#        57748
#        70100
#        87478
#        99350
#        114510
#        130588
#        146000
#        163648
#
# Disc length: 2546 seconds
#
# Revision: 1
# Processed by: cddbd v1.5.2PL0 Copyright (c) Steve Scherf et al.
# Submitted via: ExactAudioCopy v0.95a5
#
DISCID=a309f00c
DTITLE=Glen Campbell - Glen Camble Live
DYEAR=1990
DGENRE=Country
TTITLE0=Rhinestone Cowboy
TTITLE1=Gentle On My Mind
TTITLE2=Medley a) Wichita Lineman b)Galveston c) Country Boy
TTITLE3=By The Time I Get to Phoenix
TTITLE4=Heartache No. 3
TTITLE5=Please Come To Boston
TTITLE6=I'm Only Make Beleive
TTITLE7=Crying
TTITLE8=Rollin'
TTITLE9=I'm So Lonesome I Could Cry
TTITLE10=Southern Nights
TTITLE11=Mull Of Kintyre
EXTD=YEAR: 1990
EXTT0=
EXTT1=
EXTT2=
EXTT3=
EXTT4=
EXTT5=
EXTT6=
EXTT7=
EXTT8=
EXTT9=
EXTT10=
EXTT11=
PLAYORDER=
